<?xml version="1.0" encoding="UTF-8" standalone="no"?>
<svg
   xmlns:dc="http://purl.org/dc/elements/1.1/"
   xmlns:cc="http://creativecommons.org/ns#"
   xmlns:rdf="http://www.w3.org/1999/02/22-rdf-syntax-ns#"
   xmlns:svg="http://www.w3.org/2000/svg"
   xmlns="http://www.w3.org/2000/svg"
   xmlns:xlink="http://www.w3.org/1999/xlink"
   xmlns:sodipodi="http://sodipodi.sourceforge.net/DTD/sodipodi-0.dtd"
   xmlns:inkscape="http://www.inkscape.org/namespaces/inkscape"
   id="Capa_1"
   enable-background="new 0 0 502 502"
   height="275"
   viewBox="0 0 502 502"
   width="275"
   version="1.1"
   sodipodi:docname="pic08.svg"
   inkscape:version="0.92.2 (5c3e80d, 2017-08-06)">
  <metadata
     id="metadata153">
    <rdf:RDF>
      <cc:Work
         rdf:about="">
        <dc:format>image/svg+xml</dc:format>
        <dc:type
           rdf:resource="http://purl.org/dc/dcmitype/StillImage" />
        <dc:title></dc:title>
      </cc:Work>
    </rdf:RDF>
  </metadata>
  <defs
     id="defs151" />
  <sodipodi:namedview
     pagecolor="#ffffff"
     bordercolor="#666666"
     borderopacity="1"
     objecttolerance="10"
     gridtolerance="10"
     guidetolerance="10"
     inkscape:pageopacity="0"
     inkscape:pageshadow="2"
     inkscape:window-width="1822"
     inkscape:window-height="1051"
     id="namedview149"
     showgrid="false"
     inkscape:zoom="0.85818182"
     inkscape:cx="137.5"
     inkscape:cy="137.5"
     inkscape:window-x="89"
     inkscape:window-y="-9"
     inkscape:window-maximized="1"
     inkscape:current-layer="Capa_1" />
  <linearGradient
     id="lg1">
    <stop
       offset="0"
       stop-color="#4e5660"
       id="stop2" />
    <stop
       offset="1"
       stop-color="#64768d"
       id="stop4" />
  </linearGradient>
  <linearGradient
     id="SVGID_1_"
     gradientUnits="userSpaceOnUse"
     x1="263.222"
     x2="263.222"
     xlink:href="#lg1"
     y1="416.48"
     y2="156.367" />
  <linearGradient
     id="lg2">
    <stop
       offset="0"
       stop-color="#f4d952"
       id="stop8" />
    <stop
       offset="1"
       stop-color="#f9edaf"
       id="stop10" />
  </linearGradient>
  <linearGradient
     id="SVGID_2_"
     gradientUnits="userSpaceOnUse"
     x1="263.222"
     x2="263.222"
     xlink:href="#lg2"
     y1="379.564"
     y2="184.274" />
  <linearGradient
     id="lg3">
    <stop
       offset="0"
       stop-color="#cdd4d4"
       id="stop14" />
    <stop
       offset="1"
       stop-color="#f3f3f3"
       id="stop16" />
  </linearGradient>
  <linearGradient
     id="SVGID_3_"
     gradientUnits="userSpaceOnUse"
     x1="263.222"
     x2="263.222"
     xlink:href="#lg3"
     y1="404.83"
     y2="462.014" />
  <linearGradient
     id="SVGID_4_"
     gradientUnits="userSpaceOnUse"
     x1="170.696"
     x2="343.136"
     xlink:href="#lg1"
     y1="477.759"
     y2="477.759" />
  <linearGradient
     id="lg4">
    <stop
       offset="0"
       stop-color="#7ed99e"
       id="stop21" />
    <stop
       offset=".2532"
       stop-color="#81daa3"
       id="stop23" />
    <stop
       offset=".5725"
       stop-color="#88ddb3"
       id="stop25" />
    <stop
       offset=".9261"
       stop-color="#95e2cd"
       id="stop27" />
    <stop
       offset="1"
       stop-color="#98e3d3"
       id="stop29" />
  </linearGradient>
  <linearGradient
     id="SVGID_5_"
     gradientUnits="userSpaceOnUse"
     x1="123.144"
     x2="90.839"
     xlink:href="#lg4"
     y1="335.433"
     y2="335.433" />
  <linearGradient
     id="SVGID_6_"
     gradientUnits="userSpaceOnUse"
     x1="321.282"
     x2="368.756"
     xlink:href="#lg3"
     y1="314.533"
     y2="314.533" />
  <linearGradient
     id="lg5">
    <stop
       offset="0"
       stop-color="#e08243"
       id="stop34" />
    <stop
       offset="1"
       stop-color="#f0bb78"
       id="stop36" />
  </linearGradient>
  <linearGradient
     id="SVGID_7_"
     gradientUnits="userSpaceOnUse"
     x1="387.334"
     x2="387.334"
     xlink:href="#lg5"
     y1="354.553"
     y2="310.473" />
  <linearGradient
     id="lg6">
    <stop
       offset="0"
       stop-color="#b39bdb"
       id="stop40" />
    <stop
       offset="1"
       stop-color="#d0c3e8"
       id="stop42" />
  </linearGradient>
  <linearGradient
     id="SVGID_8_"
     gradientUnits="userSpaceOnUse"
     x1="126.044"
     x2="12.343"
     xlink:href="#lg6"
     y1="159.669"
     y2="159.669" />
  <linearGradient
     id="SVGID_9_"
     gradientUnits="userSpaceOnUse"
     x1="209.056"
     x2="209.056"
     xlink:href="#lg6"
     y1="89.313"
     y2="10.862" />
  <linearGradient
     id="SVGID_10_"
     gradientUnits="userSpaceOnUse"
     x1="297.152"
     x2="297.152"
     xlink:href="#lg3"
     y1="123.128"
     y2="44.64" />
  <linearGradient
     id="SVGID_11_"
     gradientUnits="userSpaceOnUse"
     x1="225.407"
     x2="225.407"
     xlink:href="#lg3"
     y1="263.695"
     y2="383.394" />
  <linearGradient
     id="lg7">
    <stop
       offset="0"
       stop-color="#d9e0e0"
       id="stop49" />
    <stop
       offset="1"
       stop-color="#f3f3f3"
       id="stop51" />
  </linearGradient>
  <linearGradient
     id="SVGID_12_"
     gradientUnits="userSpaceOnUse"
     x1="50.051"
     x2="351.925"
     xlink:href="#lg7"
     y1="189.665"
     y2="189.665" />
  <linearGradient
     id="SVGID_13_"
     gradientUnits="userSpaceOnUse"
     x1="223.289"
     x2="320.15"
     xlink:href="#lg2"
     y1="101.702"
     y2="101.702" />
  <linearGradient
     id="SVGID_14_"
     gradientUnits="userSpaceOnUse"
     x1="223.285"
     x2="300.647"
     y1="64.12"
     y2="64.12">
    <stop
       offset="0"
       stop-color="#ec6f80"
       id="stop56" />
    <stop
       offset="1"
       stop-color="#eca0aa"
       id="stop58" />
  </linearGradient>
  <linearGradient
     id="SVGID_15_"
     gradientUnits="userSpaceOnUse"
     x1="238.455"
     x2="298.128"
     xlink:href="#lg4"
     y1="25.965"
     y2="25.965" />
  <linearGradient
     id="SVGID_16_"
     gradientUnits="userSpaceOnUse"
     x1="156.067"
     x2="156.067"
     xlink:href="#lg3"
     y1="172.754"
     y2="79.848" />
  <linearGradient
     id="SVGID_17_"
     gradientUnits="userSpaceOnUse"
     x1="211.683"
     x2="211.683"
     xlink:href="#lg7"
     y1="372.811"
     y2="310.82" />
  <linearGradient
     id="SVGID_18_"
     gradientUnits="userSpaceOnUse"
     x1="269.828"
     x2="269.828"
     xlink:href="#lg5"
     y1="385.511"
     y2="341.927" />
  <linearGradient
     id="SVGID_19_"
     gradientUnits="userSpaceOnUse"
     x1="399.833"
     x2="472.439"
     y1="391.887"
     y2="391.887">
    <stop
       offset="0"
       stop-color="#74d2e8"
       id="stop65" />
    <stop
       offset="1"
       stop-color="#baeaf5"
       id="stop67" />
  </linearGradient>
  <g
     id="g146"
     transform="matrix(0.52931178,0,0,0.53389825,133.03255,119.11867)">
    <path
       d="M 61.085,363.327 V 173.372 c 0,-25.249 20.468,-45.717 45.717,-45.717 h 312.84 c 25.249,0 45.717,20.468 45.717,45.717 v 189.956 c 0,25.249 -20.468,45.717 -45.717,45.717 H 106.802 C 81.553,409.044 61.085,388.576 61.085,363.327 Z"
       id="path70"
       style="fill:url(#SVGID_1_)"
       inkscape:connector-curvature="0" />
    <path
       d="m 135.873,251.741 c -16.126,2.386 -32.393,1.513 -47.83,-1.79 -9.459,-2.024 -18.758,4.03 -20.751,13.496 -1.996,9.477 4.101,18.713 13.571,20.737 12.046,2.574 24.272,3.917 36.348,3.918 h 0.007 c 8.384,0 16.659,-0.662 24.773,-1.925 3.398,-5.53 7.29,-11.129 11.72,-16.762 -7.097,-5.242 -13.008,-11.161 -17.838,-17.674 z"
       id="path72"
       inkscape:connector-curvature="0"
       style="fill:#424e5e" />
    <path
       d="M 418.48,162.718 H 107.964 c -6.526,0 -11.816,5.29 -11.816,11.816 v 126.562 c 34.146,32.521 204.524,59.2 230.134,72.884 h 92.198 c 6.526,0 11.816,-5.29 11.816,-11.816 v -187.63 c 0,-6.525 -5.29,-11.816 -11.816,-11.816 z"
       id="path74"
       style="fill:url(#SVGID_2_)"
       inkscape:connector-curvature="0" />
    <path
       d="m 135.873,251.741 c -13.327,1.972 -26.752,1.719 -39.725,-0.289 v 35.304 c 7.03,0.873 14.072,1.345 21.064,1.346 h 0.007 c 8.384,0 16.659,-0.662 24.773,-1.925 3.398,-5.53 7.29,-11.129 11.72,-16.762 -7.098,-5.242 -13.009,-11.161 -17.839,-17.674 z"
       id="path76"
       inkscape:connector-curvature="0"
       style="fill:#fcb500" />
    <path
       d="M 317.269,409.044 H 209.175 l -10.663,44.474 h 129.42 z"
       id="path78"
       style="fill:url(#SVGID_3_)"
       inkscape:connector-curvature="0" />
    <path
       d="M 343.038,502 H 183.405 c -8.02,0 -14.235,-7.014 -13.269,-14.976 l 1.255,-10.342 c 1.604,-13.221 12.826,-23.163 26.144,-23.163 h 131.373 c 13.318,0 24.539,9.942 26.144,23.163 l 1.255,10.342 C 357.273,494.986 351.059,502 343.038,502 Z"
       id="path80"
       style="fill:url(#SVGID_4_)"
       inkscape:connector-curvature="0" />
    <g
       id="g134">
      <path
         d="M 159.684,318.351 C 145.264,298.975 119.08,291.404 96.148,301.097 v 61.068 c 0,6.526 5.29,11.816 11.816,11.816 h 16.569 c 7.044,-15.433 19.033,-42.709 35.151,-55.63 z"
         id="path82"
         style="fill:url(#SVGID_5_)"
         inkscape:connector-curvature="0" />
      <path
         d="m 366.695,299.508 c -18.807,0.313 -36.555,-4.984 -55.946,-16.512 -11.89,-7.068 -27.258,-3.16 -34.326,8.73 -7.068,11.891 -3.16,27.258 8.729,34.326 27.223,16.184 55.709,24.777 86.699,23.394 6.624,-14.014 7.555,-39.38 -5.156,-49.938 z"
         id="path84"
         style="fill:url(#SVGID_6_)"
         inkscape:connector-curvature="0" />
      <path
         d="m 380.827,298.276 c -4.803,0.751 -9.499,1.155 -14.132,1.232 -2.997,10.597 -2.758,38.688 5.156,49.938 5.492,-0.245 11.061,-0.798 16.717,-1.683 13.666,-2.138 23.012,-14.949 20.874,-28.615 -2.138,-13.664 -14.947,-23.01 -28.615,-20.872 z"
         id="path86"
         style="fill:url(#SVGID_7_)"
         inkscape:connector-curvature="0" />
      <path
         d="M 204.222,138.293 C 204.345,99.265 172.447,66.246 133.42,66.236 94.299,66.227 62.582,97.938 62.582,137.057 c 0,12.242 -0.12,36.532 -19.451,47.816 -17.991,10.502 -18.113,36.645 -0.247,47.358 38.816,23.274 95.428,31.636 141.112,1.018 0,0.001 20,-22.879 20.226,-94.956 z"
         id="path88"
         style="fill:url(#SVGID_8_)"
         inkscape:connector-curvature="0" />
      <circle
         cx="209.056"
         cy="82.706001"
         r="70.820999"
         id="circle90"
         style="fill:url(#SVGID_9_)" />
      <path
         d="m 320.05,48.745 c -20.737,-7.548 -55.392,23.588 -64.513,60.422 -5.305,21.421 5.626,36.848 26.363,44.396 20.737,7.548 39.027,2.755 48.732,-17.064 16.689,-34.079 10.155,-80.206 -10.582,-87.754 z"
         id="path92"
         style="fill:url(#SVGID_10_)"
         inkscape:connector-curvature="0" />
      <path
         d="M 278.096,248.405 H 172.718 c -49.748,48.308 -56.086,97.141 -48.186,125.576 h 201.749 c 7.901,-28.435 1.563,-77.268 -48.185,-125.576 z"
         id="path94"
         style="fill:url(#SVGID_11_)"
         inkscape:connector-curvature="0" />
      <path
         d="m 416.424,213.649 c -2.815,53.789 -43.533,82.975 -151,82.975 -107.467,0 -146.827,-42.174 -146.827,-103.279 0,-61.105 41.471,-110.639 122.562,-110.639 81.09,0 178.865,62.138 175.265,130.943 z"
         id="path96"
         style="fill:url(#SVGID_12_)"
         inkscape:connector-curvature="0" />
      <g
         id="g114">
        <ellipse
           cx="195.327"
           cy="204.028"
           rx="14.936"
           ry="12.003"
           id="ellipse98"
           style="fill:#eaadcd" />
        <ellipse
           cx="371.09799"
           cy="204.028"
           rx="14.936"
           ry="12.003"
           id="ellipse100"
           style="fill:#eaadcd" />
        <circle
           cx="220.933"
           cy="174.41"
           r="29.618"
           id="circle102"
           style="fill:#ffffff" />
        <circle
           cx="232.899"
           cy="174.41"
           transform="matrix(0.23,-0.973,0.973,0.23,9.646,361.007)"
           id="ellipse104"
           r="17.652"
           style="fill:#3b3b44" />
        <circle
           cx="345.491"
           cy="174.41"
           r="29.618"
           id="circle106"
           style="fill:#ffffff" />
        <g
           id="g112"
           style="fill:#3b3b44">
          <circle
             cx="357.39401"
             cy="174.41"
             transform="matrix(0.707,-0.707,0.707,0.707,-18.648,303.799)"
             id="ellipse108"
             r="17.652" />
          <ellipse
             cx="322.14899"
             cy="245.423"
             rx="13.252"
             ry="17.351999"
             id="ellipse110" />
        </g>
      </g>
      <g
         id="g126">
        <path
           d="m 225.498,96.135 c -1.417,14.043 14.742,28.275 36.932,32.188 22.85,4.029 43.437,-4.41 45.983,-18.849 1.548,-8.782 2.064,-20.537 1.586,-33.086 -30.122,-5.725 -53.789,-1.426 -84.501,19.747 z"
           id="path116"
           style="fill:url(#SVGID_13_)"
           inkscape:connector-curvature="0" />
        <path
           d="m 257.545,98.432 c -1.848,-0.912 -3.271,-1.857 -4.251,-2.663 0.238,-1.004 0.514,-2.057 0.808,-3.132 -9.441,-0.837 -16.997,-0.642 -28.604,3.499 -1.03,10.204 7.217,20.509 20.32,26.881 8.099,3.939 17.722,-0.994 19.286,-9.863 l 0.016,-0.089 c 1.063,-6.029 -2.087,-11.924 -7.575,-14.633 z"
           id="path118"
           inkscape:connector-curvature="0"
           style="fill:#fcb500" />
        <path
           d="m 304.257,32.437 c -21.905,-1.501 -43.312,1.586 -63.823,19.493 -7.197,15.451 -12.719,31.336 -14.767,42.953 -0.074,0.417 -0.127,0.834 -0.169,1.252 25.506,-1.829 54.901,-7.26 84.502,-19.747 -0.562,-14.728 -2.495,-30.547 -5.743,-43.951 z"
           id="path120"
           style="fill:url(#SVGID_14_)"
           inkscape:connector-curvature="0" />
        <path
           d="m 253.547,54.754 c -6.921,-2.748 -14.776,0.569 -17.62,7.451 -4.96,12 -8.665,23.633 -10.26,32.679 -0.074,0.417 -0.126,0.834 -0.168,1.252 9.094,-0.652 18.688,-1.774 28.604,-3.499 1.619,-5.925 4.048,-12.855 6.995,-19.992 2.903,-7.033 -0.479,-15.083 -7.551,-17.891 z"
           id="path122"
           inkscape:connector-curvature="0"
           style="fill:#e05d6f" />
        <path
           d="M 304.257,32.437 C 300.032,15 293.583,1.654 285.031,0.146 271.712,-2.202 253.368,24.161 240.434,51.93 c 20.21,-2.949 42.206,-8.802 63.823,-19.493 z"
           id="path124"
           style="fill:url(#SVGID_15_)"
           inkscape:connector-curvature="0" />
      </g>
      <path
         d="m 133.168,49.747 c 20.737,-7.548 55.392,23.588 64.513,60.422 5.305,21.421 -5.626,36.848 -26.363,44.396 -20.737,7.548 -39.027,2.755 -48.732,-17.064 -16.689,-34.079 -10.155,-80.206 10.582,-87.754 z"
         id="path128"
         style="fill:url(#SVGID_16_)"
         inkscape:connector-curvature="0" />
      <path
         d="m 255.277,329.566 c -16.669,-2.1 -35.209,-8.529 -46.945,-21.672 -9.213,-10.318 -25.047,-11.214 -35.362,-2.002 -10.318,9.213 -11.214,25.045 -2.002,35.362 18.139,20.315 46.055,33.845 77.077,37.913 11.48,-6.991 13.478,-37.961 7.232,-49.601 z"
         id="path130"
         style="fill:url(#SVGID_17_)"
         inkscape:connector-curvature="0" />
      <path
         d="m 292.836,355.416 c 0,-13.832 -11.212,-25.045 -25.045,-25.045 -3.94,0 -8.164,-0.258 -12.514,-0.806 -8.158,11.371 -10.047,37.72 -7.231,49.601 6.468,0.848 13.068,1.294 19.745,1.294 13.832,0.001 25.045,-11.212 25.045,-25.044 z"
         id="path132"
         style="fill:url(#SVGID_18_)"
         inkscape:connector-curvature="0" />
    </g>
    <path
       d="m 440.439,450.103 -14.1,-34.038 c -2.114,-5.103 0.309,-10.952 5.411,-13.065 5.104,-2.115 10.952,0.309 13.065,5.411 l 14.1,34.038 c 2.114,5.103 -0.309,10.952 -5.411,13.065 -5.14,2.13 -10.967,-0.345 -13.065,-5.411 z"
       id="path136"
       inkscape:connector-curvature="0"
       style="fill:#65c5d4" />
    <path
       d="m 447.568,413.724 15.67,-1.176 c 8.468,-0.635 12.283,-10.918 6.278,-16.923 l -41.402,-41.402 c -10.437,-10.436 -28.281,-3.045 -28.281,11.714 v 58.551 c 0,8.492 9.969,13.066 16.406,7.527 l 11.912,-10.249 c 5.447,-4.686 12.251,-7.505 19.417,-8.042 z"
       id="path138"
       style="fill:url(#SVGID_19_)"
       inkscape:connector-curvature="0" />
    <g
       id="g144"
       style="fill:#8196ab">
      <path
         d="m 283.212,487.77 h -25.979 c -5.522,0 -10,-4.477 -10,-10 0,-5.522 4.478,-10 10,-10 h 25.979 c 5.522,0 10,4.478 10,10 0,5.523 -4.478,10 -10,10 z"
         id="path140"
         inkscape:connector-curvature="0" />
      <path
         d="m 328.312,487.77 h -4.836 c -5.523,0 -10,-4.477 -10,-10 0,-5.522 4.477,-10 10,-10 h 4.836 c 5.523,0 10,4.478 10,10 0,5.523 -4.477,10 -10,10 z"
         id="path142"
         inkscape:connector-curvature="0" />
    </g>
  </g>
</svg>
