<?xml version="1.0" encoding="UTF-8" standalone="no"?>
<svg
   xmlns:dc="http://purl.org/dc/elements/1.1/"
   xmlns:cc="http://creativecommons.org/ns#"
   xmlns:rdf="http://www.w3.org/1999/02/22-rdf-syntax-ns#"
   xmlns:svg="http://www.w3.org/2000/svg"
   xmlns="http://www.w3.org/2000/svg"
   xmlns:sodipodi="http://sodipodi.sourceforge.net/DTD/sodipodi-0.dtd"
   xmlns:inkscape="http://www.inkscape.org/namespaces/inkscape"
   id="line"
   enable-background="new 0 0 36 36"
   height="220"
   viewBox="0 0 36 36"
   width="220"
   version="1.1"
   sodipodi:docname="pic09.svg"
   inkscape:version="0.92.2 (5c3e80d, 2017-08-06)">
  <metadata
     id="metadata67">
    <rdf:RDF>
      <cc:Work
         rdf:about="">
        <dc:format>image/svg+xml</dc:format>
        <dc:type
           rdf:resource="http://purl.org/dc/dcmitype/StillImage" />
        <dc:title></dc:title>
      </cc:Work>
    </rdf:RDF>
  </metadata>
  <defs
     id="defs65" />
  <sodipodi:namedview
     pagecolor="#ffffff"
     bordercolor="#666666"
     borderopacity="1"
     objecttolerance="10"
     gridtolerance="10"
     guidetolerance="10"
     inkscape:pageopacity="0"
     inkscape:pageshadow="2"
     inkscape:window-width="1822"
     inkscape:window-height="1051"
     id="namedview63"
     showgrid="false"
     inkscape:zoom="1.0727273"
     inkscape:cx="110"
     inkscape:cy="147.28814"
     inkscape:window-x="89"
     inkscape:window-y="-9"
     inkscape:window-maximized="1"
     inkscape:current-layer="line" />
  <g
     id="g4"
     transform="matrix(0.56645437,0,0,0.61645885,8.7951299,6.674935)">
    <path
       d="m 31.833,8.377 c 0,6.917 3.583,11.667 3.583,15 0,3.333 -1.916,10.333 -17.249,10.333 -15.333,0 -17.584,-9.417 -17.584,-13.083 0,-17.167 31.25,-24.5 31.25,-12.25 z"
       id="path2"
       inkscape:connector-curvature="0"
       style="fill:#efefef" />
  </g>
  <g
     id="g8"
     transform="matrix(0.56645437,0,0,0.61645885,8.7951299,6.674935)">
    <path
       d="M 5,12.5 C 4.173,12.5 3.5,11.827 3.5,11 3.5,10.173 4.173,9.5 5,9.5 c 0.827,0 1.5,0.673 1.5,1.5 0,0.827 -0.673,1.5 -1.5,1.5 z m 0,-2 c -0.275,0 -0.5,0.225 -0.5,0.5 0,0.275 0.225,0.5 0.5,0.5 0.275,0 0.5,-0.225 0.5,-0.5 0,-0.275 -0.225,-0.5 -0.5,-0.5 z"
       id="path6"
       inkscape:connector-curvature="0"
       style="fill:#a4afc1" />
  </g>
  <g
     id="g12"
     transform="matrix(0.56645437,0,0,0.61645885,8.7951299,6.674935)">
    <path
       d="m 16.59,17.75 c -0.81,-0.54 -1.34,-1.45 -1.34,-2.5 0,-1.66 1.34,-3 3,-3 1.66,0 3,1.34 3,3 0,1.05 -0.53,1.96 -1.34,2.5 h 4.34 v 3.27 c -0.675,-0.611 -1.626,-0.914 -2.646,-0.703 -1.159,0.24 -2.092,1.202 -2.303,2.366 -0.347,1.911 1.103,3.566 2.949,3.566 0.77,0 1.47,-0.29 2,-0.77 v 2.77 c 0,0.552 -0.448,1 -1,1 h -10.5 c -0.552,0 -1,-0.448 -1,-1 v -2.77 C 11.075,26.09 10.124,26.393 9.104,26.182 7.945,25.942 7.012,24.98 6.801,23.816 6.455,21.906 7.905,20.25 9.75,20.25 c 0.77,0 1.47,0.29 2,0.77 v -3.27 z"
       id="path10"
       inkscape:connector-curvature="0"
       style="fill:#2fdf84" />
  </g>
  <g
     id="g16"
     transform="matrix(0.56645437,0,0,0.61645885,8.7951299,6.674935)">
    <path
       d="M 29.198,11.184 C 28.987,10.02 28.054,9.058 26.895,8.818 25.875,8.606 24.924,8.909 24.249,9.521 V 7.75 c 0,-0.552 -0.448,-1 -1,-1 h -10.5 c -0.552,0 -1,0.448 -1,1 v 10 h 4.84 c -0.81,-0.54 -1.34,-1.45 -1.34,-2.5 0,-1.66 1.34,-3 3,-3 1.66,0 3,1.34 3,3 0,1.05 -0.53,1.96 -1.34,2.5 h 4.34 v -3.77 c 0.53,0.48 1.23,0.77 2,0.77 1.846,0 3.296,-1.656 2.949,-3.566 z"
       id="path14"
       inkscape:connector-curvature="0"
       style="fill:#f3f3f1" />
  </g>
  <g
     id="g20"
     transform="matrix(0.56645437,0,0,0.61645885,8.7951299,6.674935)">
    <path
       d="m 16.59,17.75 h 2.25 c -0.81,-0.54 -1.34,-1.45 -1.34,-2.5 0,-1.261 0.775,-2.334 1.875,-2.778 -0.348,-0.141 -0.726,-0.222 -1.125,-0.222 -1.66,0 -3,1.34 -3,3 0,1.05 0.53,1.96 1.34,2.5 z"
       id="path18"
       inkscape:connector-curvature="0"
       style="fill:#00b871" />
  </g>
  <g
     id="g24"
     transform="matrix(0.56645437,0,0,0.61645885,8.7951299,6.674935)">
    <path
       d="m 24.25,25.48 c -0.252,0.228 -0.545,0.41 -0.864,0.542 0.271,0.109 0.56,0.175 0.864,0.2 z"
       id="path22"
       inkscape:connector-curvature="0"
       style="fill:#00b871" />
  </g>
  <g
     id="g28"
     transform="matrix(0.56645437,0,0,0.61645885,8.7951299,6.674935)">
    <path
       d="m 24.25,20.283 c -0.132,0.01 -0.261,0.007 -0.396,0.035 -0.176,0.036 -0.344,0.094 -0.507,0.162 0.331,0.132 0.642,0.304 0.903,0.541 z"
       id="path26"
       inkscape:connector-curvature="0"
       style="fill:#00b871" />
  </g>
  <g
     id="g32"
     transform="matrix(0.56645437,0,0,0.61645885,8.7951299,6.674935)">
    <path
       d="m 12,20.25 c 0.77,0 1.47,0.29 2,0.77 v -3.27 h -2.25 v 2.528 C 11.834,20.271 11.914,20.25 12,20.25 Z"
       id="path30"
       inkscape:connector-curvature="0"
       style="fill:#00b871" />
  </g>
  <g
     id="g36"
     transform="matrix(0.56645437,0,0,0.61645885,8.7951299,6.674935)">
    <path
       d="m 9.052,23.816 c -0.272,-1.5 0.57,-2.83 1.835,-3.338 -0.351,-0.145 -0.733,-0.228 -1.136,-0.228 -1.845,0 -3.295,1.656 -2.948,3.566 0.211,1.164 1.144,2.126 2.303,2.367 0.626,0.13 1.217,0.048 1.743,-0.162 -0.917,-0.38 -1.618,-1.217 -1.797,-2.205 z"
       id="path34"
       inkscape:connector-curvature="0"
       style="fill:#00b871" />
  </g>
  <g
     id="g40"
     transform="matrix(0.56645437,0,0,0.61645885,8.7951299,6.674935)">
    <path
       d="m 14,28.25 v -2.77 c -0.586,0.531 -1.384,0.806 -2.25,0.737 v 2.033 c 0,0.552 0.448,1 1,1 H 15 c -0.552,0 -1,-0.448 -1,-1 z"
       id="path38"
       inkscape:connector-curvature="0"
       style="fill:#00b871" />
  </g>
  <g
     id="g44"
     transform="matrix(0.56645437,0,0,0.61645885,8.7951299,6.674935)">
    <path
       d="m 15,6.75 h -2.25 c -0.552,0 -1,0.448 -1,1 v 10 H 14 v -10 c 0,-0.552 0.448,-1 1,-1 z"
       id="path42"
       inkscape:connector-curvature="0"
       style="fill:#d5dbe1" />
  </g>
  <g
     id="g48"
     transform="matrix(0.56645437,0,0,0.61645885,8.7951299,6.674935)">
    <path
       d="M 24.25,18.5 H 19.91 V 17 h 3.59 v -3.02 c 0,-0.297 0.175,-0.565 0.445,-0.686 0.272,-0.119 0.588,-0.069 0.808,0.129 0.907,0.82 2.443,0.707 3.226,-0.231 0.436,-0.521 0.606,-1.188 0.481,-1.875 C 28.304,10.455 27.598,9.728 26.743,9.551 26.016,9.4 25.289,9.59 24.754,10.074 c -0.22,0.2 -0.536,0.249 -0.808,0.13 C 23.675,10.085 23.5,9.816 23.5,9.52 V 7.75 C 23.5,7.612 23.388,7.5 23.25,7.5 H 18 V 6 h 5.25 C 24.215,6 25,6.785 25,7.75 v 0.463 c 0.642,-0.228 1.345,-0.276 2.048,-0.13 1.461,0.303 2.622,1.495 2.889,2.967 0.202,1.116 -0.092,2.248 -0.807,3.104 -0.989,1.186 -2.701,1.64 -4.13,1.131 v 2.465 c 0,0.414 -0.336,0.75 -0.75,0.75 z"
       id="path46"
       inkscape:connector-curvature="0" />
  </g>
  <g
     id="g52"
     transform="matrix(0.56645437,0,0,0.61645885,8.7951299,6.674935)">
    <path
       d="M 16.59,18.5 H 11.75 C 11.336,18.5 11,18.164 11,17.75 v -10 C 11,6.785 11.785,6 12.75,6 H 16 V 7.5 H 12.75 C 12.612,7.5 12.5,7.612 12.5,7.75 V 17 h 4.09 z"
       id="path50"
       inkscape:connector-curvature="0" />
  </g>
  <g
     id="g56"
     transform="matrix(0.56645437,0,0,0.61645885,8.7951299,6.674935)">
    <path
       d="M 23.25,30 H 12.75 C 11.785,30 11,29.215 11,28.25 V 26.787 C 10.357,27.014 9.654,27.062 8.952,26.917 7.491,26.614 6.33,25.422 6.063,23.95 5.861,22.834 6.155,21.702 6.87,20.846 7.859,19.661 9.573,19.207 11,19.715 V 17.75 C 11,17.336 11.336,17 11.75,17 h 3.183 C 14.653,16.469 14.5,15.87 14.5,15.25 c 0,-2.067 1.683,-3.75 3.75,-3.75 2.067,0 3.75,1.683 3.75,3.75 0,0.62 -0.152,1.219 -0.433,1.75 h 2.683 c 0.414,0 0.75,0.336 0.75,0.75 v 3.27 c 0,0.297 -0.175,0.565 -0.446,0.686 -0.271,0.119 -0.588,0.069 -0.808,-0.13 -0.535,-0.484 -1.263,-0.674 -1.989,-0.523 -0.854,0.177 -1.561,0.903 -1.717,1.766 -0.125,0.688 0.046,1.354 0.481,1.875 0.781,0.938 2.317,1.052 3.226,0.231 0.22,-0.199 0.537,-0.248 0.808,-0.129 0.27,0.119 0.445,0.388 0.445,0.684 v 2.77 C 25,29.215 24.215,30 23.25,30 Z m -11.5,-5.27 c 0.103,0 0.206,0.021 0.304,0.064 0.271,0.12 0.446,0.389 0.446,0.686 v 2.77 c 0,0.138 0.112,0.25 0.25,0.25 h 10.5 c 0.138,0 0.25,-0.112 0.25,-0.25 v -1.465 c -1.428,0.511 -3.141,0.055 -4.13,-1.131 -0.715,-0.856 -1.009,-1.988 -0.807,-3.104 0.267,-1.472 1.428,-2.664 2.889,-2.967 0.701,-0.146 1.404,-0.098 2.048,0.13 V 18.5 h -3.59 c -0.33,0 -0.622,-0.216 -0.718,-0.532 -0.096,-0.316 0.026,-0.658 0.302,-0.842 C 20.124,16.706 20.5,16.005 20.5,15.25 20.5,14.01 19.49,13 18.25,13 17.01,13 16,14.01 16,15.25 c 0,0.755 0.376,1.456 1.006,1.876 0.275,0.184 0.397,0.525 0.302,0.842 C 17.213,18.285 16.92,18.5 16.59,18.5 H 12.5 v 2.52 c 0,0.297 -0.175,0.565 -0.445,0.686 -0.271,0.119 -0.588,0.069 -0.808,-0.129 -0.908,-0.822 -2.444,-0.708 -3.226,0.231 -0.436,0.521 -0.606,1.188 -0.481,1.875 0.156,0.862 0.862,1.589 1.717,1.766 0.729,0.152 1.455,-0.039 1.989,-0.523 0.141,-0.129 0.321,-0.196 0.504,-0.196 z"
       id="path54"
       inkscape:connector-curvature="0" />
  </g>
  <g
     id="g60"
     transform="matrix(0.56645437,0,0,0.61645885,8.7951299,6.674935)">
    <path
       d="M 2,28.5 H 34 V 30 H 2 Z"
       id="path58"
       inkscape:connector-curvature="0" />
  </g>
</svg>
