<?xml version="1.0" encoding="UTF-8" standalone="no"?>
<svg
   xmlns:dc="http://purl.org/dc/elements/1.1/"
   xmlns:cc="http://creativecommons.org/ns#"
   xmlns:rdf="http://www.w3.org/1999/02/22-rdf-syntax-ns#"
   xmlns:svg="http://www.w3.org/2000/svg"
   xmlns="http://www.w3.org/2000/svg"
   xmlns:sodipodi="http://sodipodi.sourceforge.net/DTD/sodipodi-0.dtd"
   xmlns:inkscape="http://www.inkscape.org/namespaces/inkscape"
   id="Capa_1"
   enable-background="new 0 0 512 512"
   height="300"
   viewBox="0 0 512 512"
   width="300"
   version="1.1"
   sodipodi:docname="pic10.svg"
   inkscape:version="0.92.2 (5c3e80d, 2017-08-06)">
  <metadata
     id="metadata65">
    <rdf:RDF>
      <cc:Work
         rdf:about="">
        <dc:format>image/svg+xml</dc:format>
        <dc:type
           rdf:resource="http://purl.org/dc/dcmitype/StillImage" />
        <dc:title></dc:title>
      </cc:Work>
    </rdf:RDF>
  </metadata>
  <defs
     id="defs63" />
  <sodipodi:namedview
     pagecolor="#ffffff"
     bordercolor="#666666"
     borderopacity="1"
     objecttolerance="10"
     gridtolerance="10"
     guidetolerance="10"
     inkscape:pageopacity="0"
     inkscape:pageshadow="2"
     inkscape:window-width="1822"
     inkscape:window-height="1051"
     id="namedview61"
     showgrid="false"
     inkscape:zoom="0.78666667"
     inkscape:cx="150"
     inkscape:cy="150"
     inkscape:window-x="89"
     inkscape:window-y="-9"
     inkscape:window-maximized="1"
     inkscape:current-layer="Capa_1" />
  <g
     id="g58"
     transform="matrix(0.55932202,0,0,0.61016264,125.83051,112.81512)">
    <g
       id="g34">
      <g
         id="g24">
        <path
           d="m 449.83,357.253 c 0,-108.493 -86.78,-196.443 -193.828,-196.443 -107.048,0 -193.829,87.95 -193.829,196.443 0,108.493 86.78,116.678 193.828,116.678 107.048,0 193.829,-8.185 193.829,-116.678 z"
           id="path2"
           inkscape:connector-curvature="0"
           style="fill:#665e66" />
        <path
           d="m 253.456,473.923 c -105.871,-0.13 -191.283,-9.034 -191.283,-116.67 0,-108.488 86.786,-196.439 193.831,-196.439 -54.483,0 -98.646,87.951 -98.646,196.439 0,106.802 42.797,116.401 96.098,116.67 z"
           id="path4"
           inkscape:connector-curvature="0"
           style="fill:#454045" />
        <path
           d="m 395.193,429.113 c -2.061,40.076 -34.128,71.978 -74.213,73.865 -34.38,1.626 -68.761,1.948 -103.141,0.983 h -0.061 c -8.721,-0.243 -17.434,-0.574 -26.155,-0.983 -40.075,-1.887 -72.152,-33.789 -74.204,-73.865 -1.513,-29.415 -1.635,-58.84 -0.365,-88.264 v -0.009 c 0.383,-9.165 0.913,-18.329 1.574,-27.494 6.356,-30.189 31.233,-55.996 65.987,-71.126 1.026,-0.443 2.061,-0.887 3.104,-1.313 14.06,-5.765 29.659,-9.808 46.24,-11.738 7.269,-0.87 14.73,-1.304 22.346,-1.304 16.894,0 33.085,2.174 48.066,6.165 v 0.009 c 46.901,12.469 81.951,42.693 89.611,79.412 0,0.009 0,0.017 0.009,0.026 2.775,38.545 3.175,77.091 1.202,115.636 z"
           id="path6"
           inkscape:connector-curvature="0"
           style="fill:#f1d0a5" />
        <path
           d="m 217.839,503.96 h -0.061 c -8.721,-0.243 -17.434,-0.574 -26.155,-0.982 -40.076,-1.887 -72.152,-33.789 -74.204,-73.865 -1.982,-38.58 -1.574,-77.177 1.209,-115.766 6.356,-30.189 31.233,-55.996 65.987,-71.126 1.026,-0.443 2.061,-0.887 3.104,-1.313 -2.382,58.101 -2.948,142.269 -1.73,189.848 0.939,36.572 14.303,66.396 31.85,73.204 z"
           id="path8"
           inkscape:connector-curvature="0"
           style="fill:#f1b986" />
        <path
           d="m 304.372,234.03 v 0.009 c -23.094,39.606 -78.464,91.672 -100.498,79.238 -8.06,-4.556 -7.008,-13.938 -2.461,-24.033 -0.652,1.139 -14.877,25.807 -34.398,42.249 -14.816,12.486 -32.676,20.242 -49.962,9.356 v -0.009 c 0.383,-9.165 0.913,-18.329 1.574,-27.494 6.356,-30.189 31.233,-55.996 65.987,-71.126 1.026,-0.443 2.061,-0.887 3.104,-1.313 14.06,-5.765 29.659,-9.808 46.24,-11.738 7.269,-0.87 14.73,-1.304 22.346,-1.304 16.897,0 33.087,2.174 48.068,6.165 z"
           id="path10"
           inkscape:connector-curvature="0"
           style="fill:#665e66" />
        <path
           d="m 167.016,331.493 c -14.816,12.486 -32.676,20.242 -49.962,9.356 v -0.009 c 0.383,-9.165 0.913,-18.329 1.574,-27.494 6.356,-30.189 31.233,-55.996 65.987,-71.126 1.026,-0.443 2.061,-0.887 3.104,-1.313 14.06,-5.765 29.659,-9.808 46.24,-11.738 7.269,-0.87 14.73,-1.304 22.346,-1.304 -48.396,16.886 -148.319,103.628 -89.289,103.628 z"
           id="path12"
           inkscape:connector-curvature="0"
           style="fill:#454045" />
        <g
           id="g18">
          <ellipse
             cx="169.56"
             cy="408.68399"
             rx="23.709999"
             ry="15.036"
             id="ellipse14"
             style="fill:#df9380" />
          <ellipse
             cx="343.04901"
             cy="408.68399"
             rx="23.709999"
             ry="15.036"
             id="ellipse16"
             style="fill:#f9a58e" />
        </g>
        <path
           d="m 395.558,300.539 c 0,4.774 -0.452,9.486 -1.339,14.086 -9.408,-49.023 -67.561,-86.759 -137.912,-86.759 -7.617,0 -15.086,0.435 -22.346,1.304 -15.529,1.8 -30.189,5.461 -43.527,10.66 -1.965,0.756 -3.904,1.556 -5.817,2.391 -35.224,15.338 -60.318,41.641 -66.239,72.36 -0.878,-4.582 -1.322,-9.278 -1.322,-14.043 0,-36.676 27.077,-68.778 67.561,-86.394 4.191,-1.826 8.53,-3.495 12.991,-4.991 11.364,-3.843 23.564,-6.591 36.354,-8.078 7.26,-0.87 14.73,-1.296 22.346,-1.296 76.906,0.001 139.25,45.111 139.25,100.76 z"
           id="path20"
           inkscape:connector-curvature="0"
           style="fill:#80b4fb" />
        <path
           d="m 197.606,209.154 -7.173,30.676 c -1.965,0.756 -3.904,1.556 -5.817,2.391 -35.224,15.338 -60.318,41.641 -66.239,72.36 -0.878,-4.582 -1.322,-9.278 -1.322,-14.043 0,-36.676 27.077,-68.778 67.561,-86.394 4.19,-1.825 8.529,-3.495 12.99,-4.99 z"
           id="path22"
           inkscape:connector-curvature="0"
           style="fill:#5490f9" />
      </g>
      <path
         d="M 128.079,157.334 H 36.751 C 20.596,157.334 7.5,144.238 7.5,128.083 V 36.754 C 7.5,20.599 20.596,7.503 36.751,7.503 h 91.329 c 16.155,0 29.251,13.096 29.251,29.251 v 91.329 c -10e-4,16.155 -13.097,29.251 -29.252,29.251 z"
         id="path26"
         inkscape:connector-curvature="0"
         style="fill:#da4a54" />
      <path
         d="M 57.97,157.333 H 36.75 c -16.15,0 -29.25,-13.1 -29.25,-29.25 v -91.33 c 0,-16.15 13.1,-29.25 29.25,-29.25 h 21.22 c -16.16,0 -29.25,13.1 -29.25,29.25 v 91.33 c 0,16.15 13.09,29.25 29.25,29.25 z"
         id="path28"
         inkscape:connector-curvature="0"
         style="fill:#c32430" />
      <path
         d="M 475.249,157.334 H 383.92 c -16.155,0 -29.251,-13.096 -29.251,-29.251 V 36.754 c 0,-16.155 13.096,-29.251 29.251,-29.251 h 91.329 c 16.155,0 29.251,13.096 29.251,29.251 v 91.329 c 0,16.155 -13.096,29.251 -29.251,29.251 z"
         id="path30"
         inkscape:connector-curvature="0"
         style="fill:#6ec17d" />
      <path
         d="m 405.14,157.334 h -21.22 c -16.15,0 -29.25,-13.1 -29.25,-29.25 v -91.33 c 0,-16.15 13.1,-29.25 29.25,-29.25 h 21.22 c -16.16,0 -29.25,13.1 -29.25,29.25 v 91.33 c 0,16.15 13.09,29.25 29.25,29.25 z"
         id="path32"
         inkscape:connector-curvature="0"
         style="fill:#5ea570" />
    </g>
    <g
       id="g56">
      <path
         d="m 256,153.313 c -111.014,0 -201.33,91.487 -201.33,203.94 0,54.277 21.197,89.421 64.746,107.356 13.615,26.254 40.405,44.379 71.854,45.859 21.579,1.018 43.302,1.527 65.032,1.527 21.725,0 43.458,-0.509 65.031,-1.527 31.569,-1.486 58.451,-19.742 72.02,-46.162 16.443,-6.869 29.356,-15.968 39.398,-27.762 2.685,-3.154 2.305,-7.888 -0.849,-10.573 -3.155,-2.685 -7.888,-2.305 -10.573,0.848 -5.664,6.653 -12.487,12.32 -20.633,17.123 1.045,-4.68 1.732,-9.502 1.986,-14.448 1.934,-37.772 1.574,-76.055 -1.036,-113.842 0.931,-4.945 1.412,-10.027 1.412,-15.117 0,-29.384 -15.586,-56.844 -43.888,-77.323 -27.57,-19.95 -64.102,-30.936 -102.867,-30.936 -7.917,0 -15.736,0.455 -23.213,1.35 -18.245,2.123 -35.563,6.71 -51.471,13.635 -21.339,9.286 -39.262,22.512 -51.829,38.247 -13.242,16.58 -20.241,35.607 -20.241,55.026 0,5.088 0.48,10.189 1.415,15.17 -2.612,37.803 -2.973,76.067 -1.036,113.789 0.259,5.065 0.97,10.001 2.057,14.786 -28.77,-16.788 -42.317,-44.863 -42.317,-87.028 0,-104.182 83.587,-188.94 186.33,-188.94 102.743,0 186.33,84.758 186.33,188.94 0,17.879 -2.509,33.504 -7.455,46.441 -1.479,3.869 0.457,8.205 4.326,9.684 3.865,1.477 8.204,-0.457 9.684,-4.327 5.604,-14.654 8.445,-32.082 8.445,-51.799 C 457.33,244.801 367.014,153.313 256,153.313 Z m 64.627,342.173 c -42.683,2.014 -85.966,2.014 -128.651,0 -36.373,-1.712 -65.205,-30.412 -67.066,-66.758 -1.304,-25.382 -1.534,-51.013 -0.743,-76.579 3.321,0.918 6.717,1.398 10.187,1.398 3.404,0 6.875,-0.443 10.403,-1.33 19.67,-4.944 37.304,-23.256 48.921,-38.251 1.919,2.78 4.379,4.638 6.511,5.842 16.61,9.378 40.908,-6.189 58.368,-20.898 18.59,-15.66 37.015,-36.714 49.228,-56.066 40.948,12.405 71.764,39.138 78.765,71.742 2.702,37.87 3.091,76.27 1.152,114.142 -1.869,36.346 -30.704,65.046 -67.075,66.758 z M 141.511,254.871 c 11.048,-13.833 26.987,-25.539 46.094,-33.854 14.555,-6.335 30.441,-10.538 47.243,-12.493 6.913,-0.827 14.132,-1.247 21.456,-1.247 58.935,0 108.957,27.533 125.743,65.38 -7.96,-9.746 -18.023,-18.58 -29.913,-26.129 -26.572,-16.872 -60.605,-26.163 -95.83,-26.163 -7.921,0 -15.74,0.455 -23.213,1.35 -18.247,2.121 -35.564,6.706 -51.474,13.626 -21.182,9.225 -38.494,21.938 -50.839,36.935 2.721,-6.03 6.312,-11.868 10.733,-17.405 z m 46.093,-5.774 c 14.553,-6.331 30.44,-10.53 47.245,-12.484 6.909,-0.827 14.127,-1.247 21.455,-1.247 12.462,0 24.58,1.255 36.098,3.598 -11.325,16.835 -27.601,35.073 -43.509,48.474 -22.37,18.845 -36.244,22.18 -41.329,19.309 -3.083,-1.741 -2.846,-6.6 0.707,-14.442 1.655,-3.652 0.144,-7.96 -3.43,-9.779 -3.573,-1.818 -7.945,-0.505 -9.925,2.982 -7.113,12.534 -30.646,46.338 -53.816,52.162 -5.804,1.458 -11.177,1.073 -16.316,-1.179 0.352,-7.365 0.768,-14.721 1.293,-22.057 5.882,-27.077 28.204,-50.826 61.527,-65.337 z"
         id="path36"
         inkscape:connector-curvature="0" />
      <path
         d="m 344.975,374.403 c -4.737,-0.912 -9.148,-1.247 -13.178,-1.212 1.226,-2.9 1.947,-6.321 1.947,-9.995 0,-10.378 -5.666,-18.821 -12.631,-18.821 -6.965,0 -12.631,8.443 -12.631,18.821 0,5.217 1.433,9.942 3.742,13.354 -3.655,1.3 -5.773,2.511 -6.002,2.646 -3.573,2.095 -4.799,6.706 -2.704,10.279 1.398,2.386 3.899,3.72 6.471,3.72 1.28,0 2.578,-0.331 3.766,-1.027 0.46,-0.259 11.438,-6.301 28.383,-3.035 4.068,0.782 8,-1.878 8.783,-5.946 0.783,-4.068 -1.879,-8.001 -5.946,-8.784 z"
         id="path38"
         inkscape:connector-curvature="0" />
      <path
         d="m 206.388,379.196 c -0.23,-0.135 -2.348,-1.345 -6.003,-2.645 2.309,-3.412 3.742,-8.138 3.742,-13.354 0,-10.378 -5.666,-18.821 -12.631,-18.821 -6.965,0 -12.631,8.443 -12.631,18.821 0,3.674 0.721,7.094 1.947,9.994 -4.03,-0.035 -8.441,0.3 -13.178,1.212 -4.067,0.784 -6.729,4.716 -5.946,8.783 0.784,4.068 4.717,6.728 8.783,5.946 16.861,-3.248 27.817,2.718 28.376,3.031 1.179,0.68 2.468,1.004 3.74,1.004 2.574,0 5.081,-1.327 6.477,-3.708 2.096,-3.573 0.897,-8.169 -2.676,-10.263 z"
         id="path40"
         inkscape:connector-curvature="0" />
      <path
         d="m 223.279,428.972 c -4.136,0.039 -7.453,3.42 -7.421,7.556 0.031,4.122 3.39,7.443 7.506,7.443 h 0.043 c 4.738,-0.051 18.292,1.219 24.294,7.22 1.464,1.464 3.384,2.197 5.303,2.197 1.919,0 3.839,-0.732 5.303,-2.197 2.929,-2.929 2.929,-7.678 0,-10.606 -11.5,-11.503 -32.66,-11.639 -35.028,-11.613 z"
         id="path42"
         inkscape:connector-curvature="0" />
      <path
         d="m 164.83,128.084 v -91.33 c 0,-20.264 -16.486,-36.75 -36.75,-36.75 H 72.97 c -4.142,0 -7.5,3.358 -7.5,7.5 0,4.142 3.358,7.5 7.5,7.5 h 55.11 c 11.993,0 21.75,9.757 21.75,21.75 v 91.33 c 0,11.993 -9.757,21.75 -21.75,21.75 H 36.75 C 24.757,149.834 15,140.077 15,128.084 v -91.33 c 0,-11.993 9.757,-21.75 21.75,-21.75 h 6.22 c 4.142,0 7.5,-3.358 7.5,-7.5 0,-4.142 -3.358,-7.5 -7.5,-7.5 H 36.75 C 16.486,0.004 0,16.49 0,36.754 v 91.33 c 0,20.264 16.486,36.75 36.75,36.75 h 91.33 c 20.264,-0.001 36.75,-16.486 36.75,-36.75 z"
         id="path44"
         inkscape:connector-curvature="0" />
      <path
         d="m 475.249,0.004 h -91.328 c -20.265,0 -36.751,16.486 -36.751,36.75 v 91.329 c 0,20.264 16.486,36.751 36.751,36.751 h 91.328 c 20.265,0 36.751,-16.486 36.751,-36.751 V 36.754 C 512,16.49 495.514,0.004 475.249,0.004 Z M 497,128.083 c 0,11.993 -9.758,21.751 -21.751,21.751 h -91.328 c -11.993,0 -21.751,-9.757 -21.751,-21.751 V 36.754 c 0,-11.993 9.758,-21.75 21.751,-21.75 h 91.328 c 11.993,0 21.751,9.757 21.751,21.75 z"
         id="path46"
         inkscape:connector-curvature="0" />
      <path
         d="m 224.115,56.888 c 4.142,0 7.5,-3.358 7.5,-7.5 0,-1.142 0.079,-2.29 0.236,-3.411 1.703,-12.203 12.257,-21.224 24.656,-20.969 12.712,0.256 23.186,10.391 23.844,23.072 0.352,6.767 -2.017,13.192 -6.668,18.091 -4.654,4.902 -10.935,7.602 -17.683,7.602 -4.142,0 -7.5,3.358 -7.5,7.5 v 23.341 c 0,4.142 3.358,7.5 7.5,7.5 4.143,0 7.5,-3.358 7.5,-7.5 V 88.068 C 271.503,86.54 278.803,82.564 284.561,76.5 292.073,68.589 295.897,58.22 295.332,47.303 294.268,26.806 277.347,10.425 256.81,10.011 236.889,9.623 219.749,24.18 216.996,43.905 c -0.252,1.806 -0.379,3.651 -0.379,5.483 -0.002,4.142 3.356,7.5 7.498,7.5 z"
         id="path48"
         inkscape:connector-curvature="0" />
      <path
         d="m 256,121.041 c -4.142,0 -7.5,3.358 -7.5,7.5 v 0.5 c 0,4.142 3.358,7.5 7.5,7.5 4.143,0 7.5,-3.358 7.5,-7.5 v -0.5 c 0,-4.142 -3.357,-7.5 -7.5,-7.5 z"
         id="path50"
         inkscape:connector-curvature="0" />
      <path
         d="m 121.918,42.916 c -2.929,-2.929 -7.678,-2.929 -10.606,0 L 82.415,71.812 53.519,42.916 c -2.929,-2.929 -7.678,-2.929 -10.606,0 -2.929,2.929 -2.929,7.677 0,10.606 l 28.896,28.896 -28.896,28.896 c -2.929,2.929 -2.929,7.677 0,10.606 1.464,1.465 3.384,2.197 5.303,2.197 1.919,0 3.839,-0.732 5.303,-2.197 l 28.896,-28.896 28.896,28.896 c 1.464,1.465 3.384,2.197 5.303,2.197 1.919,0 3.839,-0.732 5.303,-2.197 2.929,-2.929 2.929,-7.677 0,-10.606 L 93.021,82.419 121.917,53.523 c 2.93,-2.93 2.93,-7.678 0.001,-10.607 z"
         id="path52"
         inkscape:connector-curvature="0" />
      <path
         d="m 470.515,35.501 c -3.665,-1.935 -8.201,-0.532 -10.134,3.13 l -37.123,70.301 -25.18,-32.384 c -2.543,-3.271 -7.255,-3.858 -10.524,-1.317 -3.271,2.542 -3.859,7.254 -1.317,10.524 l 32.31,41.552 c 1.428,1.836 3.618,2.896 5.92,2.896 0.218,0 0.438,-0.01 0.656,-0.029 2.537,-0.223 4.788,-1.717 5.977,-3.969 l 42.546,-80.572 c 1.933,-3.661 0.532,-8.198 -3.131,-10.132 z"
         id="path54"
         inkscape:connector-curvature="0" />
    </g>
  </g>
</svg>
